<svg width="17" height="17" viewBox="0 0 17 17" fill="none" xmlns="http://www.w3.org/2000/svg">
<path id="Union" fill-rule="evenodd" clip-rule="evenodd" d="M1.53499 0H15.465C16.3093 0 17 0.695454 17 1.54545V15.4545C17 16.3045 16.3093 17 15.465 17H1.53499C0.690745 17 0 16.3045 0 15.4545V1.54545C0 0.695454 0.690745 0 1.53499 0ZM13.1242 2.125C12.702 2.125 12.3567 2.47273 12.3567 2.89773V4H15.2923V2.89773C15.2923 2.47273 14.947 2.125 14.5248 2.125H13.1242ZM15.2923 5H12.3567V10.0455C12.3567 10.4705 12.702 10.8182 13.1242 10.8182H14.5248C14.947 10.8182 15.2923 10.4705 15.2923 10.0455V5ZM4.5474 4V2.975C4.5474 2.51136 4.16366 2.125 3.70316 2.125H2.45598C1.99549 2.125 1.61174 2.51136 1.61174 2.975V4H4.5474ZM1.61174 5H4.5474V9.9875C4.5474 10.4511 4.16366 10.8375 3.70316 10.8375H2.45598C1.99549 10.8375 1.61174 10.4511 1.61174 9.9875V5ZM15.2348 16.7295C16.0406 16.7295 16.7122 16.0727 16.7122 15.242V12.4795H0.28781V15.242C0.28781 16.0534 0.940181 16.7295 1.76524 16.7295H15.2348Z" fill="#E5E5E5"/>
</svg>
