<svg width="17" height="17" viewBox="0 0 17 17" fill="none" xmlns="http://www.w3.org/2000/svg">
<path id="Union" fill-rule="evenodd" clip-rule="evenodd" d="M15.465 0H1.53499C0.690745 0 0 0.689966 0 1.53326V15.4667C0 16.31 0.690745 17 1.53499 17H6H7H15.465C16.3093 17 17 16.31 17 15.4667V1.53326C17 0.689966 16.3093 0 15.465 0ZM7 16.0417H11.9537C12.3758 16.0417 12.7212 15.6967 12.7212 15.2751H12.702V13.8952C12.702 13.4735 12.3567 13.1285 11.9345 13.1285H7V16.0417ZM6 13.1285H5.04628C4.62415 13.1285 4.27878 13.4735 4.27878 13.8952V15.2751C4.27878 15.6967 4.62415 16.0417 5.04628 16.0417H6V13.1285ZM2.24492 9.88951C1.91874 9.88951 1.65011 9.62119 1.65011 9.29538V4H4.56659V9.29538C4.56659 9.62119 4.29797 9.88951 3.97178 9.88951H2.24492ZM1.65011 2.0699V3H4.56659V2.0699C4.56659 1.74408 4.29797 1.47576 3.97178 1.47576H2.24492C1.91874 1.47576 1.65011 1.74408 1.65011 2.0699ZM12.2415 9.27621V4H15.1772V9.27621C15.1772 9.6212 14.8894 9.90868 14.544 9.90868H12.8747C12.5293 9.90868 12.2415 9.6212 12.2415 9.27621ZM12.2415 3H15.1772V2.08906C15.1772 1.74408 14.8894 1.4566 14.544 1.4566H12.8747C12.5293 1.4566 12.2415 1.74408 12.2415 2.08906V3Z" fill="#E5E5E5"/>
</svg>
